<?xml version="1.0" standalone="no"?>
<!DOCTYPE svg PUBLIC "-//W3C//DTD SVG 1.1//EN" "http://www.w3.org/Graphics/SVG/1.1/DTD/svg11.dtd">
<svg width="100%" height="100%" version="1.1" xmlns="http://www.w3.org/2000/svg">
<rect x="346" y="28" width="54" height="22" style="fill:rgb(255,255,255);stroke:rgb(0,0,0);stroke-width:1;stroke-dasharray:4,1"/>
<rect x="343" y="25" width="54" height="22" style="fill:rgb(255,255,255);stroke:rgb(0,0,0);stroke-width:1;stroke-dasharray:4,1"/>
<text x="370" y="36" style="font-family:Arial;font-size:8pt;fill:rgb(0,0,0);font-weight:bold;text-anchor:middle;dominant-baseline:central">param</text>
<text x="387" y="57" style="font-family:Arial;font-size:7.2pt;fill:rgb(0,0,0);text-anchor:end;dominant-baseline:central">0..∞</text>

<line x1="323" y1="36" x2="343" y2="36" style="stroke:rgb(0,0,0);stroke-width:1;stroke-linecap:round"/>
<path d="M289 26 L312 26 L318 32 L318 40 L312 46 L289 46 L283 40 L283 32 Z" style="fill:rgb(255,255,255);stroke:rgb(0,0,0);stroke-width:1"/>
<line x1="286" y1="36" x2="315" y2="36" style="stroke:rgb(0,0,0);stroke-width:1"/>
<ellipse cx="295" cy="36" rx="2" ry="2" style="rgb(0,0,0)"/>
<ellipse cx="300" cy="36" rx="2" ry="2" style="rgb(0,0,0)"/>
<ellipse cx="305" cy="36" rx="2" ry="2" style="rgb(0,0,0)"/>
<rect x="313" y="31" width="10" height="10" style="fill:rgb(255,255,255);stroke:rgb(0,0,0);stroke-width:1"/>
<line x1="315" y1="36" x2="321" y2="36" style="stroke:rgb(0,0,0);stroke-width:1"/>

<line x1="263" y1="36" x2="283" y2="36" style="stroke:rgb(0,0,0);stroke-width:1;stroke-linecap:round"/>
<rect x="163" y="25" width="95" height="22" style="fill:rgb(255,255,255);stroke:rgb(0,0,0);stroke-width:1;stroke-dasharray:4,1"/>
<text x="210.5" y="36" style="font-family:Arial;font-size:8pt;fill:rgb(0,0,0);font-weight:bold;text-anchor:middle;dominant-baseline:central">globalparams</text>
<rect x="253" y="31" width="10" height="10" style="fill:rgb(255,255,255);stroke:rgb(0,0,0);stroke-width:1"/>
<line x1="255" y1="36" x2="261" y2="36" style="stroke:rgb(0,0,0);stroke-width:1"/>

<rect x="166" y="80" width="85" height="22" style="fill:rgb(255,255,255);stroke:rgb(0,0,0);stroke-width:1;stroke-dasharray:4,1"/>
<rect x="163" y="77" width="85" height="22" style="fill:rgb(255,255,255);stroke:rgb(0,0,0);stroke-width:1;stroke-dasharray:4,1"/>
<text x="205.5" y="88" style="font-family:Arial;font-size:8pt;fill:rgb(0,0,0);font-weight:bold;text-anchor:middle;dominant-baseline:central">environment</text>
<text x="238" y="109" style="font-family:Arial;font-size:7.2pt;fill:rgb(0,0,0);text-anchor:end;dominant-baseline:central">0..∞</text>

<rect x="303" y="132" width="54" height="22" style="fill:rgb(255,255,255);stroke:rgb(0,0,0);stroke-width:1;stroke-dasharray:4,1"/>
<rect x="300" y="129" width="54" height="22" style="fill:rgb(255,255,255);stroke:rgb(0,0,0);stroke-width:1;stroke-dasharray:4,1"/>
<text x="327" y="140" style="font-family:Arial;font-size:8pt;fill:rgb(0,0,0);font-weight:bold;text-anchor:middle;dominant-baseline:central">param</text>
<text x="344" y="161" style="font-family:Arial;font-size:7.2pt;fill:rgb(0,0,0);text-anchor:end;dominant-baseline:central">0..∞</text>

<rect x="303" y="184" width="70" height="22" style="fill:rgb(255,255,255);stroke:rgb(0,0,0);stroke-width:1;stroke-dasharray:4,1"/>
<rect x="300" y="181" width="70" height="22" style="fill:rgb(255,255,255);stroke:rgb(0,0,0);stroke-width:1;stroke-dasharray:4,1"/>
<text x="335" y="192" style="font-family:Arial;font-size:8pt;fill:rgb(0,0,0);font-weight:bold;text-anchor:middle;dominant-baseline:central">sequence</text>
<text x="360" y="213" style="font-family:Arial;font-size:7.2pt;fill:rgb(0,0,0);text-anchor:end;dominant-baseline:central">0..∞</text>

<line x1="290" y1="140" x2="300" y2="140" style="stroke:rgb(0,0,0);stroke-width:1;stroke-linecap:round"/>
<line x1="290" y1="192" x2="300" y2="192" style="stroke:rgb(0,0,0);stroke-width:1;stroke-linecap:round"/>
<line x1="290" y1="140" x2="290" y2="192" style="stroke:rgb(0,0,0);stroke-width:1;stroke-linecap:round"/>
<line x1="280" y1="166" x2="290" y2="166" style="stroke:rgb(0,0,0);stroke-width:1;stroke-linecap:round"/>
<path d="M246 156 L269 156 L275 162 L275 170 L269 176 L246 176 L240 170 L240 162 Z" style="fill:rgb(255,255,255);stroke:rgb(0,0,0);stroke-width:1"/>
<line x1="243" y1="166" x2="272" y2="166" style="stroke:rgb(0,0,0);stroke-width:1"/>
<ellipse cx="252" cy="166" rx="2" ry="2" style="rgb(0,0,0)"/>
<ellipse cx="257" cy="166" rx="2" ry="2" style="rgb(0,0,0)"/>
<ellipse cx="262" cy="166" rx="2" ry="2" style="rgb(0,0,0)"/>
<rect x="270" y="161" width="10" height="10" style="fill:rgb(255,255,255);stroke:rgb(0,0,0);stroke-width:1"/>
<line x1="272" y1="166" x2="278" y2="166" style="stroke:rgb(0,0,0);stroke-width:1"/>

<line x1="220" y1="166" x2="240" y2="166" style="stroke:rgb(0,0,0);stroke-width:1;stroke-linecap:round"/>
<rect x="166" y="158" width="52" height="22" style="fill:rgb(255,255,255);stroke:rgb(0,0,0);stroke-width:1"/>
<rect x="163" y="155" width="52" height="22" style="fill:rgb(255,255,255);stroke:rgb(0,0,0);stroke-width:1"/>
<text x="189" y="166" style="font-family:Arial;font-size:8pt;fill:rgb(0,0,0);font-weight:bold;text-anchor:middle;dominant-baseline:central">build</text>
<text x="210" y="187" style="font-family:Arial;font-size:7.2pt;fill:rgb(0,0,0);text-anchor:end;dominant-baseline:central">1..∞</text>
<rect x="210" y="161" width="10" height="10" style="fill:rgb(255,255,255);stroke:rgb(0,0,0);stroke-width:1"/>
<line x1="212" y1="166" x2="218" y2="166" style="stroke:rgb(0,0,0);stroke-width:1"/>

<rect x="326" y="236" width="54" height="22" style="fill:rgb(255,255,255);stroke:rgb(0,0,0);stroke-width:1;stroke-dasharray:4,1"/>
<rect x="323" y="233" width="54" height="22" style="fill:rgb(255,255,255);stroke:rgb(0,0,0);stroke-width:1;stroke-dasharray:4,1"/>
<text x="350" y="244" style="font-family:Arial;font-size:8pt;fill:rgb(0,0,0);font-weight:bold;text-anchor:middle;dominant-baseline:central">param</text>
<text x="367" y="265" style="font-family:Arial;font-size:7.2pt;fill:rgb(0,0,0);text-anchor:end;dominant-baseline:central">0..∞</text>

<rect x="386" y="288" width="44" height="22" style="fill:rgb(255,255,255);stroke:rgb(0,0,0);stroke-width:1"/>
<rect x="383" y="285" width="44" height="22" style="fill:rgb(255,255,255);stroke:rgb(0,0,0);stroke-width:1"/>
<text x="405" y="296" style="font-family:Arial;font-size:8pt;fill:rgb(0,0,0);font-weight:bold;text-anchor:middle;dominant-baseline:central">step</text>
<text x="417" y="317" style="font-family:Arial;font-size:7.2pt;fill:rgb(0,0,0);text-anchor:end;dominant-baseline:central">1..∞</text>

<rect x="386" y="340" width="70" height="22" style="fill:rgb(255,255,255);stroke:rgb(0,0,0);stroke-width:1;stroke-dasharray:4,1"/>
<rect x="383" y="337" width="70" height="22" style="fill:rgb(255,255,255);stroke:rgb(0,0,0);stroke-width:1;stroke-dasharray:4,1"/>
<text x="418" y="348" style="font-family:Arial;font-size:8pt;fill:rgb(0,0,0);font-weight:bold;text-anchor:middle;dominant-baseline:central">sequence</text>
<text x="443" y="369" style="font-family:Arial;font-size:7.2pt;fill:rgb(0,0,0);text-anchor:end;dominant-baseline:central">0..∞</text>

<line x1="373" y1="296" x2="383" y2="296" style="stroke:rgb(0,0,0);stroke-width:1;stroke-linecap:round"/>
<line x1="373" y1="348" x2="383" y2="348" style="stroke:rgb(0,0,0);stroke-width:1;stroke-linecap:round"/>
<line x1="373" y1="296" x2="373" y2="348" style="stroke:rgb(0,0,0);stroke-width:1;stroke-linecap:round"/>
<line x1="363" y1="322" x2="373" y2="322" style="stroke:rgb(0,0,0);stroke-width:1;stroke-linecap:round"/>
<path d="M332 315 L355 315 L361 321 L361 329 L355 335 L332 335 L326 329 L326 321 Z" style="fill:rgb(255,255,255);stroke:rgb(0,0,0);stroke-width:1"/>
<path d="M329 312 L352 312 L358 318 L358 326 L352 332 L329 332 L323 326 L323 318 Z" style="fill:rgb(255,255,255);stroke:rgb(0,0,0);stroke-width:1"/>
<line x1="328" y1="322" x2="332" y2="322" style="stroke:rgb(0,0,0);stroke-width:1"/>
<line x1="332" y1="322" x2="336" y2="318" style="stroke:rgb(0,0,0);stroke-width:1"/>
<line x1="344" y1="318" x2="348" y2="318" style="stroke:rgb(0,0,0);stroke-width:1"/>
<line x1="344" y1="322" x2="352" y2="322" style="stroke:rgb(0,0,0);stroke-width:1"/>
<line x1="344" y1="326" x2="348" y2="326" style="stroke:rgb(0,0,0);stroke-width:1"/>
<line x1="348" y1="318" x2="348" y2="326" style="stroke:rgb(0,0,0);stroke-width:1"/>
<ellipse cx="340" cy="318" rx="2" ry="2" style="rgb(0,0,0)"/>
<ellipse cx="340" cy="322" rx="2" ry="2" style="rgb(0,0,0)"/>
<ellipse cx="340" cy="326" rx="2" ry="2" style="rgb(0,0,0)"/>
<text x="353" y="342" style="font-family:Arial;font-size:7.2pt;fill:rgb(0,0,0);text-anchor:end;dominant-baseline:central">1..∞</text>
<rect x="353" y="317" width="10" height="10" style="fill:rgb(255,255,255);stroke:rgb(0,0,0);stroke-width:1"/>
<line x1="355" y1="322" x2="361" y2="322" style="stroke:rgb(0,0,0);stroke-width:1"/>

<line x1="313" y1="244" x2="323" y2="244" style="stroke:rgb(0,0,0);stroke-width:1;stroke-linecap:round"/>
<line x1="313" y1="322" x2="323" y2="322" style="stroke:rgb(0,0,0);stroke-width:1;stroke-linecap:round"/>
<line x1="313" y1="244" x2="313" y2="322" style="stroke:rgb(0,0,0);stroke-width:1;stroke-linecap:round"/>
<line x1="303" y1="296" x2="313" y2="296" style="stroke:rgb(0,0,0);stroke-width:1;stroke-linecap:round"/>
<path d="M269 286 L292 286 L298 292 L298 300 L292 306 L269 306 L263 300 L263 292 Z" style="fill:rgb(255,255,255);stroke:rgb(0,0,0);stroke-width:1"/>
<line x1="266" y1="296" x2="295" y2="296" style="stroke:rgb(0,0,0);stroke-width:1"/>
<ellipse cx="275" cy="296" rx="2" ry="2" style="rgb(0,0,0)"/>
<ellipse cx="280" cy="296" rx="2" ry="2" style="rgb(0,0,0)"/>
<ellipse cx="285" cy="296" rx="2" ry="2" style="rgb(0,0,0)"/>
<rect x="293" y="291" width="10" height="10" style="fill:rgb(255,255,255);stroke:rgb(0,0,0);stroke-width:1"/>
<line x1="295" y1="296" x2="301" y2="296" style="stroke:rgb(0,0,0);stroke-width:1"/>

<line x1="243" y1="296" x2="263" y2="296" style="stroke:rgb(0,0,0);stroke-width:1;stroke-linecap:round"/>
<rect x="166" y="288" width="75" height="22" style="fill:rgb(255,255,255);stroke:rgb(0,0,0);stroke-width:1"/>
<rect x="163" y="285" width="75" height="22" style="fill:rgb(255,255,255);stroke:rgb(0,0,0);stroke-width:1"/>
<text x="200.5" y="296" style="font-family:Arial;font-size:8pt;fill:rgb(0,0,0);font-weight:bold;text-anchor:middle;dominant-baseline:central">sequence</text>
<text x="233" y="317" style="font-family:Arial;font-size:7.2pt;fill:rgb(0,0,0);text-anchor:end;dominant-baseline:central">1..∞</text>
<rect x="233" y="291" width="10" height="10" style="fill:rgb(255,255,255);stroke:rgb(0,0,0);stroke-width:1"/>
<line x1="235" y1="296" x2="241" y2="296" style="stroke:rgb(0,0,0);stroke-width:1"/>

<rect x="369" y="392" width="45" height="22" style="fill:rgb(255,255,255);stroke:rgb(0,0,0);stroke-width:1;stroke-dasharray:4,1"/>
<rect x="366" y="389" width="45" height="22" style="fill:rgb(255,255,255);stroke:rgb(0,0,0);stroke-width:1;stroke-dasharray:4,1"/>
<text x="388.5" y="400" style="font-family:Arial;font-size:8pt;fill:rgb(0,0,0);font-weight:bold;text-anchor:middle;dominant-baseline:central">infra</text>
<text x="401" y="421" style="font-family:Arial;font-size:7.2pt;fill:rgb(0,0,0);text-anchor:end;dominant-baseline:central">0..∞</text>

<rect x="522" y="441" width="32" height="22" style="fill:rgb(255,255,255);stroke:rgb(0,0,0);stroke-width:1;stroke-dasharray:4,1"/>
<text x="538" y="452" style="font-family:Arial;font-size:8pt;fill:rgb(0,0,0);font-weight:bold;text-anchor:middle;dominant-baseline:central">id</text>
<line x1="524" y1="443" x2="532" y2="443" style="stroke:rgb(0,0,0);stroke-width:1"/>
<line x1="524" y1="445" x2="530" y2="445" style="stroke:rgb(0,0,0);stroke-width:1"/>
<line x1="524" y1="447" x2="530" y2="447" style="stroke:rgb(0,0,0);stroke-width:1"/>
<line x1="524" y1="449" x2="530" y2="449" style="stroke:rgb(0,0,0);stroke-width:1"/>

<rect x="522" y="493" width="50" height="22" style="fill:rgb(255,255,255);stroke:rgb(0,0,0);stroke-width:1;stroke-dasharray:4,1"/>
<text x="547" y="504" style="font-family:Arial;font-size:8pt;fill:rgb(0,0,0);font-weight:bold;text-anchor:middle;dominant-baseline:central">name</text>
<line x1="524" y1="495" x2="532" y2="495" style="stroke:rgb(0,0,0);stroke-width:1"/>
<line x1="524" y1="497" x2="530" y2="497" style="stroke:rgb(0,0,0);stroke-width:1"/>
<line x1="524" y1="499" x2="530" y2="499" style="stroke:rgb(0,0,0);stroke-width:1"/>
<line x1="524" y1="501" x2="530" y2="501" style="stroke:rgb(0,0,0);stroke-width:1"/>

<line x1="512" y1="452" x2="522" y2="452" style="stroke:rgb(0,0,0);stroke-width:1;stroke-linecap:round"/>
<line x1="512" y1="504" x2="522" y2="504" style="stroke:rgb(0,0,0);stroke-width:1;stroke-linecap:round"/>
<line x1="512" y1="452" x2="512" y2="504" style="stroke:rgb(0,0,0);stroke-width:1;stroke-linecap:round"/>
<line x1="502" y1="478" x2="512" y2="478" style="stroke:rgb(0,0,0);stroke-width:1;stroke-linecap:round"/>
<path d="M468 468 L491 468 L497 474 L497 482 L491 488 L468 488 L462 482 L462 474 Z" style="fill:rgb(255,255,255);stroke:rgb(0,0,0);stroke-width:1"/>
<line x1="465" y1="478" x2="494" y2="478" style="stroke:rgb(0,0,0);stroke-width:1"/>
<ellipse cx="474" cy="478" rx="2" ry="2" style="rgb(0,0,0)"/>
<ellipse cx="479" cy="478" rx="2" ry="2" style="rgb(0,0,0)"/>
<ellipse cx="484" cy="478" rx="2" ry="2" style="rgb(0,0,0)"/>
<rect x="492" y="473" width="10" height="10" style="fill:rgb(255,255,255);stroke:rgb(0,0,0);stroke-width:1"/>
<line x1="494" y1="478" x2="500" y2="478" style="stroke:rgb(0,0,0);stroke-width:1"/>

<line x1="442" y1="478" x2="462" y2="478" style="stroke:rgb(0,0,0);stroke-width:1;stroke-linecap:round"/>
<rect x="369" y="470" width="71" height="22" style="fill:rgb(255,255,255);stroke:rgb(0,0,0);stroke-width:1;stroke-dasharray:4,1"/>
<rect x="366" y="467" width="71" height="22" style="fill:rgb(255,255,255);stroke:rgb(0,0,0);stroke-width:1;stroke-dasharray:4,1"/>
<text x="401.5" y="478" style="font-family:Arial;font-size:8pt;fill:rgb(0,0,0);font-weight:bold;text-anchor:middle;dominant-baseline:central">osconfig</text>
<text x="432" y="499" style="font-family:Arial;font-size:7.2pt;fill:rgb(0,0,0);text-anchor:end;dominant-baseline:central">0..∞</text>
<rect x="432" y="473" width="10" height="10" style="fill:rgb(255,255,255);stroke:rgb(0,0,0);stroke-width:1"/>
<line x1="434" y1="478" x2="440" y2="478" style="stroke:rgb(0,0,0);stroke-width:1"/>

<rect x="496" y="545" width="32" height="22" style="fill:rgb(255,255,255);stroke:rgb(0,0,0);stroke-width:1;stroke-dasharray:4,1"/>
<text x="512" y="556" style="font-family:Arial;font-size:8pt;fill:rgb(0,0,0);font-weight:bold;text-anchor:middle;dominant-baseline:central">id</text>
<line x1="498" y1="547" x2="506" y2="547" style="stroke:rgb(0,0,0);stroke-width:1"/>
<line x1="498" y1="549" x2="504" y2="549" style="stroke:rgb(0,0,0);stroke-width:1"/>
<line x1="498" y1="551" x2="504" y2="551" style="stroke:rgb(0,0,0);stroke-width:1"/>
<line x1="498" y1="553" x2="504" y2="553" style="stroke:rgb(0,0,0);stroke-width:1"/>

<rect x="496" y="597" width="50" height="22" style="fill:rgb(255,255,255);stroke:rgb(0,0,0);stroke-width:1;stroke-dasharray:4,1"/>
<text x="521" y="608" style="font-family:Arial;font-size:8pt;fill:rgb(0,0,0);font-weight:bold;text-anchor:middle;dominant-baseline:central">name</text>
<line x1="498" y1="599" x2="506" y2="599" style="stroke:rgb(0,0,0);stroke-width:1"/>
<line x1="498" y1="601" x2="504" y2="601" style="stroke:rgb(0,0,0);stroke-width:1"/>
<line x1="498" y1="603" x2="504" y2="603" style="stroke:rgb(0,0,0);stroke-width:1"/>
<line x1="498" y1="605" x2="504" y2="605" style="stroke:rgb(0,0,0);stroke-width:1"/>

<line x1="486" y1="556" x2="496" y2="556" style="stroke:rgb(0,0,0);stroke-width:1;stroke-linecap:round"/>
<line x1="486" y1="608" x2="496" y2="608" style="stroke:rgb(0,0,0);stroke-width:1;stroke-linecap:round"/>
<line x1="486" y1="556" x2="486" y2="608" style="stroke:rgb(0,0,0);stroke-width:1;stroke-linecap:round"/>
<line x1="476" y1="582" x2="486" y2="582" style="stroke:rgb(0,0,0);stroke-width:1;stroke-linecap:round"/>
<path d="M442 572 L465 572 L471 578 L471 586 L465 592 L442 592 L436 586 L436 578 Z" style="fill:rgb(255,255,255);stroke:rgb(0,0,0);stroke-width:1"/>
<line x1="439" y1="582" x2="468" y2="582" style="stroke:rgb(0,0,0);stroke-width:1"/>
<ellipse cx="448" cy="582" rx="2" ry="2" style="rgb(0,0,0)"/>
<ellipse cx="453" cy="582" rx="2" ry="2" style="rgb(0,0,0)"/>
<ellipse cx="458" cy="582" rx="2" ry="2" style="rgb(0,0,0)"/>
<rect x="466" y="577" width="10" height="10" style="fill:rgb(255,255,255);stroke:rgb(0,0,0);stroke-width:1"/>
<line x1="468" y1="582" x2="474" y2="582" style="stroke:rgb(0,0,0);stroke-width:1"/>

<line x1="416" y1="582" x2="436" y2="582" style="stroke:rgb(0,0,0);stroke-width:1;stroke-linecap:round"/>
<rect x="369" y="574" width="45" height="22" style="fill:rgb(255,255,255);stroke:rgb(0,0,0);stroke-width:1;stroke-dasharray:4,1"/>
<rect x="366" y="571" width="45" height="22" style="fill:rgb(255,255,255);stroke:rgb(0,0,0);stroke-width:1;stroke-dasharray:4,1"/>
<text x="388.5" y="582" style="font-family:Arial;font-size:8pt;fill:rgb(0,0,0);font-weight:bold;text-anchor:middle;dominant-baseline:central">call</text>
<text x="406" y="603" style="font-family:Arial;font-size:7.2pt;fill:rgb(0,0,0);text-anchor:end;dominant-baseline:central">0..∞</text>
<rect x="406" y="577" width="10" height="10" style="fill:rgb(255,255,255);stroke:rgb(0,0,0);stroke-width:1"/>
<line x1="408" y1="582" x2="414" y2="582" style="stroke:rgb(0,0,0);stroke-width:1"/>

<rect x="545" y="649" width="32" height="22" style="fill:rgb(255,255,255);stroke:rgb(0,0,0);stroke-width:1;stroke-dasharray:4,1"/>
<text x="561" y="660" style="font-family:Arial;font-size:8pt;fill:rgb(0,0,0);font-weight:bold;text-anchor:middle;dominant-baseline:central">id</text>
<line x1="547" y1="651" x2="555" y2="651" style="stroke:rgb(0,0,0);stroke-width:1"/>
<line x1="547" y1="653" x2="553" y2="653" style="stroke:rgb(0,0,0);stroke-width:1"/>
<line x1="547" y1="655" x2="553" y2="655" style="stroke:rgb(0,0,0);stroke-width:1"/>
<line x1="547" y1="657" x2="553" y2="657" style="stroke:rgb(0,0,0);stroke-width:1"/>

<rect x="545" y="701" width="50" height="22" style="fill:rgb(255,255,255);stroke:rgb(0,0,0);stroke-width:1;stroke-dasharray:4,1"/>
<text x="570" y="712" style="font-family:Arial;font-size:8pt;fill:rgb(0,0,0);font-weight:bold;text-anchor:middle;dominant-baseline:central">name</text>
<line x1="547" y1="703" x2="555" y2="703" style="stroke:rgb(0,0,0);stroke-width:1"/>
<line x1="547" y1="705" x2="553" y2="705" style="stroke:rgb(0,0,0);stroke-width:1"/>
<line x1="547" y1="707" x2="553" y2="707" style="stroke:rgb(0,0,0);stroke-width:1"/>
<line x1="547" y1="709" x2="553" y2="709" style="stroke:rgb(0,0,0);stroke-width:1"/>

<line x1="535" y1="660" x2="545" y2="660" style="stroke:rgb(0,0,0);stroke-width:1;stroke-linecap:round"/>
<line x1="535" y1="712" x2="545" y2="712" style="stroke:rgb(0,0,0);stroke-width:1;stroke-linecap:round"/>
<line x1="535" y1="660" x2="535" y2="712" style="stroke:rgb(0,0,0);stroke-width:1;stroke-linecap:round"/>
<line x1="525" y1="686" x2="535" y2="686" style="stroke:rgb(0,0,0);stroke-width:1;stroke-linecap:round"/>
<path d="M491 676 L514 676 L520 682 L520 690 L514 696 L491 696 L485 690 L485 682 Z" style="fill:rgb(255,255,255);stroke:rgb(0,0,0);stroke-width:1"/>
<line x1="488" y1="686" x2="517" y2="686" style="stroke:rgb(0,0,0);stroke-width:1"/>
<ellipse cx="497" cy="686" rx="2" ry="2" style="rgb(0,0,0)"/>
<ellipse cx="502" cy="686" rx="2" ry="2" style="rgb(0,0,0)"/>
<ellipse cx="507" cy="686" rx="2" ry="2" style="rgb(0,0,0)"/>
<rect x="515" y="681" width="10" height="10" style="fill:rgb(255,255,255);stroke:rgb(0,0,0);stroke-width:1"/>
<line x1="517" y1="686" x2="523" y2="686" style="stroke:rgb(0,0,0);stroke-width:1"/>

<line x1="465" y1="686" x2="485" y2="686" style="stroke:rgb(0,0,0);stroke-width:1;stroke-linecap:round"/>
<rect x="369" y="678" width="94" height="22" style="fill:rgb(255,255,255);stroke:rgb(0,0,0);stroke-width:1;stroke-dasharray:4,1"/>
<rect x="366" y="675" width="94" height="22" style="fill:rgb(255,255,255);stroke:rgb(0,0,0);stroke-width:1;stroke-dasharray:4,1"/>
<text x="413" y="686" style="font-family:Arial;font-size:8pt;fill:rgb(0,0,0);font-weight:bold;text-anchor:middle;dominant-baseline:central">sshcommand</text>
<text x="455" y="707" style="font-family:Arial;font-size:7.2pt;fill:rgb(0,0,0);text-anchor:end;dominant-baseline:central">0..∞</text>
<rect x="455" y="681" width="10" height="10" style="fill:rgb(255,255,255);stroke:rgb(0,0,0);stroke-width:1"/>
<line x1="457" y1="686" x2="463" y2="686" style="stroke:rgb(0,0,0);stroke-width:1"/>

<line x1="356" y1="400" x2="366" y2="400" style="stroke:rgb(0,0,0);stroke-width:1;stroke-linecap:round"/>
<line x1="356" y1="478" x2="366" y2="478" style="stroke:rgb(0,0,0);stroke-width:1;stroke-linecap:round"/>
<line x1="356" y1="582" x2="366" y2="582" style="stroke:rgb(0,0,0);stroke-width:1;stroke-linecap:round"/>
<line x1="356" y1="686" x2="366" y2="686" style="stroke:rgb(0,0,0);stroke-width:1;stroke-linecap:round"/>
<line x1="356" y1="400" x2="356" y2="686" style="stroke:rgb(0,0,0);stroke-width:1;stroke-linecap:round"/>
<line x1="346" y1="556" x2="356" y2="556" style="stroke:rgb(0,0,0);stroke-width:1;stroke-linecap:round"/>
<path d="M315 549 L338 549 L344 555 L344 563 L338 569 L315 569 L309 563 L309 555 Z" style="fill:rgb(255,255,255);stroke:rgb(0,0,0);stroke-width:1"/>
<path d="M312 546 L335 546 L341 552 L341 560 L335 566 L312 566 L306 560 L306 552 Z" style="fill:rgb(255,255,255);stroke:rgb(0,0,0);stroke-width:1"/>
<line x1="311" y1="556" x2="315" y2="556" style="stroke:rgb(0,0,0);stroke-width:1"/>
<line x1="315" y1="556" x2="319" y2="552" style="stroke:rgb(0,0,0);stroke-width:1"/>
<line x1="327" y1="552" x2="331" y2="552" style="stroke:rgb(0,0,0);stroke-width:1"/>
<line x1="327" y1="556" x2="335" y2="556" style="stroke:rgb(0,0,0);stroke-width:1"/>
<line x1="327" y1="560" x2="331" y2="560" style="stroke:rgb(0,0,0);stroke-width:1"/>
<line x1="331" y1="552" x2="331" y2="560" style="stroke:rgb(0,0,0);stroke-width:1"/>
<ellipse cx="323" cy="552" rx="2" ry="2" style="rgb(0,0,0)"/>
<ellipse cx="323" cy="556" rx="2" ry="2" style="rgb(0,0,0)"/>
<ellipse cx="323" cy="560" rx="2" ry="2" style="rgb(0,0,0)"/>
<text x="336" y="576" style="font-family:Arial;font-size:7.2pt;fill:rgb(0,0,0);text-anchor:end;dominant-baseline:central">1..∞</text>
<rect x="336" y="551" width="10" height="10" style="fill:rgb(255,255,255);stroke:rgb(0,0,0);stroke-width:1"/>
<line x1="338" y1="556" x2="344" y2="556" style="stroke:rgb(0,0,0);stroke-width:1"/>

<line x1="286" y1="556" x2="306" y2="556" style="stroke:rgb(0,0,0);stroke-width:1;stroke-linecap:round"/>
<path d="M252 546 L275 546 L281 552 L281 560 L275 566 L252 566 L246 560 L246 552 Z" style="fill:rgb(255,255,255);stroke:rgb(0,0,0);stroke-width:1"/>
<line x1="249" y1="556" x2="278" y2="556" style="stroke:rgb(0,0,0);stroke-width:1"/>
<ellipse cx="258" cy="556" rx="2" ry="2" style="rgb(0,0,0)"/>
<ellipse cx="263" cy="556" rx="2" ry="2" style="rgb(0,0,0)"/>
<ellipse cx="268" cy="556" rx="2" ry="2" style="rgb(0,0,0)"/>
<rect x="276" y="551" width="10" height="10" style="fill:rgb(255,255,255);stroke:rgb(0,0,0);stroke-width:1"/>
<line x1="278" y1="556" x2="284" y2="556" style="stroke:rgb(0,0,0);stroke-width:1"/>

<line x1="226" y1="556" x2="246" y2="556" style="stroke:rgb(0,0,0);stroke-width:1;stroke-linecap:round"/>
<rect x="166" y="548" width="58" height="22" style="fill:rgb(255,255,255);stroke:rgb(0,0,0);stroke-width:1"/>
<rect x="163" y="545" width="58" height="22" style="fill:rgb(255,255,255);stroke:rgb(0,0,0);stroke-width:1"/>
<text x="192" y="556" style="font-family:Arial;font-size:8pt;fill:rgb(0,0,0);font-weight:bold;text-anchor:middle;dominant-baseline:central">action</text>
<text x="216" y="577" style="font-family:Arial;font-size:7.2pt;fill:rgb(0,0,0);text-anchor:end;dominant-baseline:central">1..∞</text>
<rect x="216" y="551" width="10" height="10" style="fill:rgb(255,255,255);stroke:rgb(0,0,0);stroke-width:1"/>
<line x1="218" y1="556" x2="224" y2="556" style="stroke:rgb(0,0,0);stroke-width:1"/>

<line x1="153" y1="36" x2="163" y2="36" style="stroke:rgb(0,0,0);stroke-width:1;stroke-linecap:round"/>
<line x1="153" y1="88" x2="163" y2="88" style="stroke:rgb(0,0,0);stroke-width:1;stroke-linecap:round"/>
<line x1="153" y1="166" x2="163" y2="166" style="stroke:rgb(0,0,0);stroke-width:1;stroke-linecap:round"/>
<line x1="153" y1="296" x2="163" y2="296" style="stroke:rgb(0,0,0);stroke-width:1;stroke-linecap:round"/>
<line x1="153" y1="556" x2="163" y2="556" style="stroke:rgb(0,0,0);stroke-width:1;stroke-linecap:round"/>
<line x1="153" y1="36" x2="153" y2="556" style="stroke:rgb(0,0,0);stroke-width:1;stroke-linecap:round"/>
<line x1="143" y1="374" x2="153" y2="374" style="stroke:rgb(0,0,0);stroke-width:1;stroke-linecap:round"/>
<path d="M109 364 L132 364 L138 370 L138 378 L132 384 L109 384 L103 378 L103 370 Z" style="fill:rgb(255,255,255);stroke:rgb(0,0,0);stroke-width:1"/>
<line x1="106" y1="374" x2="135" y2="374" style="stroke:rgb(0,0,0);stroke-width:1"/>
<ellipse cx="115" cy="374" rx="2" ry="2" style="rgb(0,0,0)"/>
<ellipse cx="120" cy="374" rx="2" ry="2" style="rgb(0,0,0)"/>
<ellipse cx="125" cy="374" rx="2" ry="2" style="rgb(0,0,0)"/>
<rect x="133" y="369" width="10" height="10" style="fill:rgb(255,255,255);stroke:rgb(0,0,0);stroke-width:1"/>
<line x1="135" y1="374" x2="141" y2="374" style="stroke:rgb(0,0,0);stroke-width:1"/>

<line x1="83" y1="374" x2="103" y2="374" style="stroke:rgb(0,0,0);stroke-width:1;stroke-linecap:round"/>
<rect x="20" y="363" width="58" height="22" style="fill:rgb(255,255,255);stroke:rgb(0,0,0);stroke-width:1"/>
<text x="49" y="374" style="font-family:Arial;font-size:8pt;fill:rgb(0,0,0);font-weight:bold;text-anchor:middle;dominant-baseline:central">builds</text>
<rect x="73" y="369" width="10" height="10" style="fill:rgb(255,255,255);stroke:rgb(0,0,0);stroke-width:1"/>
<line x1="75" y1="374" x2="81" y2="374" style="stroke:rgb(0,0,0);stroke-width:1"/>
</svg>
